<svg width="64" height="64" viewBox="0 0 64 64" fill="none" xmlns="http://www.w3.org/2000/svg">
<g clip-path="url(#clip0_10_2)">
<path d="M11.1253 8.45868C8 11.5813 8 16.6107 8 26.6667V37.3333C8 47.3893 8 52.4187 11.1253 55.5413C14.2507 58.664 19.2773 58.6667 29.3333 58.6667H34.6667C44.7227 58.6667 49.752 58.6667 52.8747 55.5413C55.9973 52.416 56 47.3893 56 37.3333V26.6667C56 16.6107 56 11.5813 52.8747 8.45868C49.7493 5.33601 44.7227 5.33334 34.6667 5.33334H29.3333C19.2773 5.33334 14.248 5.33334 11.1253 8.45868Z" fill="#9495AD"/>
<path d="M16 32C16 28.2293 16 26.344 17.1733 25.1733C18.3413 24 20.2267 24 24 24H40C43.7707 24 45.656 24 46.8267 25.1733C48 26.344 48 28.2293 48 32V42.6667C48 46.4373 48 48.3227 46.8267 49.4933C45.656 50.6667 43.7707 50.6667 40 50.6667H24C20.2293 50.6667 18.344 50.6667 17.1733 49.4933C16 48.3253 16 46.44 16 42.6667V32ZM18.6667 14C18.1362 14 17.6275 14.2107 17.2525 14.5858C16.8774 14.9609 16.6667 15.4696 16.6667 16C16.6667 16.5304 16.8774 17.0391 17.2525 17.4142C17.6275 17.7893 18.1362 18 18.6667 18H32C32.5304 18 33.0391 17.7893 33.4142 17.4142C33.7893 17.0391 34 16.5304 34 16C34 15.4696 33.7893 14.9609 33.4142 14.5858C33.0391 14.2107 32.5304 14 32 14H18.6667Z" fill="#6F72AD"/>
<path d="M29.6 -6L21.0667 28.1333H33.8667L25.3333 58L50.9333 19.6H38.1333L50.9333 -6H29.6Z" fill="#FFD469"/>
</g>
<defs>
<clipPath id="clip0_10_2">
<rect width="64" height="64" fill="white"/>
</clipPath>
</defs>
</svg>
